<svg width="67" height="80" viewBox="0 0 67 80" fill="none" xmlns="http://www.w3.org/2000/svg">
<path d="M66.1202 32.1763L65.8646 32.0126L65.6719 31.7691L65.3745 31.6893L65.1105 31.5592L64.8214 31.4878L64.5407 31.3828L64.2433 31.3451L63.9416 31.3157L63.6441 31.2569L63.3383 31.2653L63.0325 31.2905L62.7308 31.2737L62.4333 31.1939L62.1359 31.1519L61.83 31.1855L61.5284 31.1771H61.2267L60.9293 31.0764L60.6276 31.0554L60.326 31.0134L60.0243 30.9882L59.7185 31.0218L59.4168 30.9756L59.1194 30.9126H58.8177L58.5119 30.963L58.2144 30.921L57.9128 30.9084L57.6153 30.8412L57.3137 30.8538L57.0162 30.7741H56.7146L56.4129 30.7825L56.1112 30.7447L55.8096 30.7321L55.5079 30.6985H55.2063L54.9046 30.6775L54.603 30.6481L54.3013 30.6229L54.0039 30.5516L53.698 30.5642L53.3964 30.5222L53.0947 30.5138L52.7931 30.4676L52.4914 30.4466L52.1898 30.3878L51.8839 30.4088L51.5823 30.371H51.2765L50.9706 30.3668L50.669 30.329L50.3631 30.3416L50.0657 30.2577L49.7598 30.2955L49.454 30.2787L49.1523 30.2367L48.8507 30.2199L48.549 30.1947L48.2516 30.1065L47.9457 30.1653L47.6525 30.0478L47.3508 30.0268L47.045 30.0478L46.7391 30.0394L46.4375 29.989H46.1316L45.8258 30.0142L45.5241 29.9344L45.2225 29.8966L44.9125 29.9386L44.6108 29.8924L44.3092 29.8336L44.0075 29.7959L43.7017 29.7665L43.3958 29.7245H43.0858L42.8177 29.6951L42.826 29.4264L42.8009 29.1241L42.8177 28.8218L42.7339 28.5154L42.8135 28.2089L42.7674 27.9024L42.7925 27.5959V27.2894L42.826 26.9829L42.7883 26.6765L42.7464 26.3742V26.0719L42.8093 25.7654L42.7674 25.4589V25.1525L42.7422 24.846L42.7883 24.5395V24.233L42.7925 23.9265L42.7381 23.62L42.7506 23.3136L42.7716 23.0071L42.7925 22.7006L42.8135 22.3941L42.7925 22.0876L42.7381 21.7812V21.4747L42.7632 21.1724L42.7297 20.8701L42.7716 20.5636V20.2572L42.8135 19.9507L42.7925 19.6442L42.7758 19.3377L42.7548 19.0312V18.7247L42.7841 18.4183L42.8051 18.1118L42.78 17.8053L42.7255 17.4988L42.7129 17.1923L42.7758 16.8859L42.759 16.5794L42.7925 16.2729L42.7464 15.9622L42.7255 15.6138H43.0649L43.3623 15.6725L43.6598 15.6138L43.9572 15.6851L44.2547 15.6641L44.5522 15.6095L44.8538 15.597L45.1555 15.6515L45.4571 15.597L45.7671 15.5424L46.0101 15.3409L46.2196 15.1141L46.3495 14.8329L46.45 14.5306L46.3202 14.2367L46.2531 13.947L46.1861 13.6531L46.0814 13.3718L45.9557 13.0989L45.8635 12.8092L45.6833 12.5657L45.5577 12.2928L45.3733 12.0535L45.1806 11.8226L45.0298 11.5623L44.8706 11.3104L44.6778 11.0837L44.5605 10.794L44.3133 10.6093L44.1835 10.328L43.9363 10.1475L43.7687 9.89556L43.5467 9.69404L43.3623 9.45473L43.1109 9.2868L42.8931 9.08108L42.6333 8.92154L42.4029 8.73262L42.2185 8.48491L41.9379 8.36316L41.7032 8.17843L41.4854 7.96851L41.234 7.80477L40.9784 7.64944L40.7438 7.45631L40.438 7.38913L40.1824 7.2338L39.9352 7.05746L39.6503 6.9651L39.378 6.84335L39.1015 6.73419L38.8292 6.61244L38.5652 6.45709L38.2803 6.36053L37.9871 6.29756L37.6938 6.24298L37.3963 6.1968L37.0989 6.16741L36.8098 6.08344H36.462V5.76856L36.4998 5.47048L36.5165 5.1766L36.5039 4.8827V4.58882L36.5458 4.29074L36.4998 3.99265L36.5081 3.69457L36.5207 3.39648L36.4746 3.0984L36.5416 2.80031L36.4956 2.50223L36.5165 2.20415L36.4746 1.90606L36.5081 1.60798L36.5626 1.30989L36.4453 1.037L36.3489 0.780898L36.2023 0.554182L36.0138 0.36106L35.821 0.142743L35.5487 0.0377838L35.2596 0.100757L34.958 0L34.6563 0.0713716H34.3547L34.053 0.0503784L33.7556 0.0839662L33.4581 0.104959L33.1606 0.0293853L32.859 0.0797701H32.5573L32.2557 0.0167907L31.9582 0.100757L31.6566 0.058777L31.3549 0.0671755H31.0533L30.7516 0.0419799L30.45 0.0209931L30.1483 0.0671755L29.8467 0.058777L29.545 0.0125946L29.2434 0.0755676L28.9417 0.0377838H28.6401L28.3384 0.0713716L28.0535 0.130149L27.798 0.277094L27.6555 0.537391L27.6471 0.822878L27.5759 1.10417L27.6262 1.40226L27.8105 1.63736L28.041 1.82629H28.3384L28.6317 1.90186L28.925 1.84309L29.2182 1.89346L29.5157 1.88507L29.8132 1.81369L30.1106 1.90606H30.4039L30.7014 1.89346H30.9988L31.2963 1.91026L31.5937 1.88927L31.8912 1.81369L32.1887 1.90186L32.4861 1.91026L32.7836 1.83049L33.081 1.89346L33.3785 1.85148L33.676 1.8053L33.9734 1.85988L34.2751 1.88087L34.472 2.11178L34.627 2.33849L34.7234 2.61139L34.7485 2.90527L34.6857 3.19916L34.7778 3.49304L34.6773 3.78693L34.7192 4.08082L34.7443 4.3747L34.7778 4.66859L34.7066 4.96247L34.7778 5.25636L34.7192 5.55025L34.7401 5.84833L34.7234 6.14222L34.4343 6.22619L34.1368 6.28076L33.8436 6.33954L33.5461 6.39412L33.2696 6.52427L32.9847 6.62503L32.6705 6.64182L32.4149 6.81815L32.1384 6.93991L31.8325 6.99869L31.5686 7.14983L31.2837 7.25479L31.0407 7.43952L30.7558 7.55287L30.5296 7.76279L30.274 7.92652L30.0017 8.06507L29.7461 8.22881L29.4822 8.37575L29.2895 8.62346L29.0297 8.783L28.7741 8.94673L28.5311 9.12726L28.3133 9.33718L28.0703 9.52191L27.8943 9.77381L27.6723 9.97953L27.4209 10.1559L27.2072 10.37L27.0313 10.6177L26.8302 10.8444L26.6584 11.0963L26.4866 11.344L26.2939 11.5791L26.0635 11.7848L25.9168 12.0493L25.7157 12.2802L25.5942 12.5615L25.456 12.8302L25.2674 13.0737L25.1669 13.3634L25.0538 13.6447L24.9951 13.9428L24.8946 14.2241L24.7815 14.5264L24.8275 14.8454L24.9658 15.1393L25.2423 15.3115L25.4392 15.576L25.7534 15.6557L26.0677 15.6473L26.3651 15.6095L26.6626 15.6725L26.96 15.6935L27.2575 15.6851L27.555 15.6347L27.8524 15.6599L28.1499 15.7145L28.418 15.6977L28.5018 15.9664L28.4683 16.2687L28.418 16.571L28.3929 16.8733L28.4851 17.1755L28.4432 17.4778V17.7801L28.4515 18.0824L28.4138 18.3847L28.4306 18.687L28.439 18.9892L28.4809 19.2915L28.3887 19.5938L28.4138 19.8961L28.3971 20.1984L28.4767 20.5007L28.4222 20.8029L28.439 21.1052V21.4075L28.3971 21.7098L28.4473 22.0121V22.3144L28.4138 22.6166L28.4809 22.9189L28.4683 23.2212L28.4222 23.5235L28.4055 23.8258L28.4599 24.1281L28.439 24.4303L28.4306 24.7326L28.4851 25.0349L28.4641 25.3372L28.4557 25.6395L28.4055 25.9417L28.4851 26.244L28.4432 26.5463L28.3971 26.8486L28.4055 27.1509L28.4725 27.4532L28.4599 27.7596L28.4892 28.0619L28.3845 28.3642L28.4013 28.6665L28.4348 28.973L28.4222 29.2795L28.4306 29.5859V29.8924L28.1792 30.0646L27.8734 30.1275L27.5969 30.2535L27.3245 30.392L27.0396 30.5012L26.7799 30.6607L26.4866 30.7489L26.2394 30.9336L25.9378 31.0008L25.6655 31.1351L25.3848 31.2443L25.0957 31.3409L24.8443 31.5214L24.5636 31.6305L24.2955 31.7733L24.0106 31.874L23.7299 31.9874L23.4575 32.1176L23.1978 32.2813L22.9297 32.4198L22.6573 32.5542L22.3557 32.6214L22.0917 32.7767L21.8194 32.9068L21.5387 33.0202L21.2748 33.1671L20.9815 33.2553L20.684 33.3309L20.4285 33.503L20.1352 33.5912L19.8796 33.7675L19.5989 33.8851L19.2931 33.9438L19.0333 34.1034L18.7401 34.1916L18.4971 34.3889L18.187 34.4435L17.944 34.6492L17.6424 34.7164L17.3701 34.8549L17.1061 35.006L16.8087 35.0816L16.5405 35.2243L16.2766 35.3797L16.0043 35.5098L15.6858 35.5434L15.4428 35.7449L15.1454 35.8205L14.8773 35.9675L14.5798 36.043L14.3284 36.2236L14.0603 36.3705L13.7419 36.3999L13.4695 36.5258L13.214 36.6938L12.9123 36.761L12.6693 36.9541L12.3719 37.0255L12.1205 37.2102L11.844 37.3277L11.5591 37.4327L11.2616 37.5041L11.0061 37.672L10.7128 37.756L10.4656 37.9491L10.1514 37.9827L9.87907 38.1128L9.60674 38.2388L9.3386 38.3773L9.0621 38.4991L8.79815 38.646L8.4965 38.709L8.2158 38.8098L7.96861 38.9903L7.6921 39.112L7.42815 39.2548L7.11812 39.2926L6.8458 39.4143L6.59023 39.5781L6.30953 39.683L6.0414 39.8216L5.74393 39.8929L5.46323 39.9979L5.19091 40.1239L4.91021 40.233L4.64207 40.3632L4.36974 40.4807L4.08904 40.5857L3.8251 40.7326L3.54439 40.8418L3.26789 40.9551L2.99137 41.0769L2.71067 41.1776L2.45091 41.3204L2.19116 41.4673L1.90627 41.5933L1.62557 41.7192L1.31553 41.8116L1.11024 42.0635L0.81697 42.1978L0.590734 42.4204L0.406391 42.6807L0.276515 42.9703L0.188531 43.2768L0.00838098 43.5497V43.8604L0 44.1585L0.0335175 44.4524V44.7547L0.0963589 45.0485L0.213667 45.3256L0.29327 45.6195L0.469233 45.8714L0.60749 46.1359L0.691281 46.434L0.913329 46.6523L1.08929 46.8916L1.18146 47.1897L1.45379 47.3493L1.58367 47.6347L1.78477 47.8573L2.00681 48.0588L2.22467 48.2645L2.4551 48.4618L2.59755 48.7389L2.86149 48.9027L3.05421 49.1336L3.28045 49.3309L3.49412 49.5408L3.64913 49.8053L3.89213 49.9816L4.1058 50.1874L4.25244 50.4644L4.53314 50.6072L4.67559 50.8885L4.88507 51.1026L5.10712 51.2999L5.37525 51.4553L5.54702 51.7072L5.79002 51.8877L6.00788 52.0934L6.20898 52.3201L6.46454 52.4881L6.67402 52.7064L6.91283 52.8869L7.13069 53.0968L7.31922 53.3403L7.54965 53.5335L7.76751 53.7392L8.02727 53.8987L8.2116 54.1464L8.44623 54.3312L8.71017 54.4865L8.94898 54.6712L9.18778 54.8517L9.35955 55.1162L9.60255 55.2968L9.8623 55.4563L10.1053 55.6326L10.3273 55.8384L10.5913 55.9895L10.805 56.2078L11.0647 56.3632L11.2868 56.5731L11.5591 56.7116L11.823 56.8628L12.0535 57.0601L12.2881 57.2532L12.5562 57.396L12.8034 57.5723L13.0967 57.6688L13.3145 57.8956L13.5659 58.0635L13.8676 58.1433L14.1315 58.286L14.3913 58.4413L14.6552 58.5883L14.9233 58.7268L15.1999 58.8444L15.4722 58.9745L15.7236 59.1467L16.0126 59.2306L16.2975 59.3314L16.5531 59.5035L16.8338 59.6253L17.1522 59.6169L17.4371 59.7093L17.722 59.81L18.0153 59.8814L18.3043 59.9738L18.6102 59.9528L18.9035 60.0619L19.2051 60.0325L19.5068 60.0199L19.8084 60.0283L20.1561 59.9738L19.8503 60.1585L19.6953 60.4314L19.423 60.5783L19.2261 60.8092L18.9956 61.0024L18.7861 61.2207L18.5348 61.3928L18.3211 61.6069L18.0907 61.7959L17.8477 61.9764L17.6382 62.1905L17.4497 62.434L17.1815 62.5852L17.0181 62.8538L16.7584 63.0134L16.5363 63.2191L16.2891 63.3996L16.0503 63.5886L15.8283 63.7985L15.6272 64.0378L15.3549 64.1889L15.1286 64.3947L14.9024 64.6004L14.6929 64.8271L14.4332 64.9908L14.1985 65.1839L13.9765 65.3897L13.7628 65.6038L13.4821 65.7297L13.2517 65.9271L13.0045 66.0908L12.7741 66.2923L12.5101 66.4435L12.2252 66.5568L12.2043 66.8675L12.1289 67.1698L12.2755 67.4469L12.309 67.7617L12.5018 68.0094L12.6526 68.2739L12.8285 68.5216L12.971 68.7987L13.1972 69.0087L13.4109 69.227L13.6204 69.4495L13.8508 69.651L14.1022 69.8273L14.3326 70.0289L14.5714 70.222L14.8312 70.3857L15.0783 70.5705L15.3297 70.7468L15.6104 70.8685L15.8828 71.0155L16.1928 71.0701L16.4693 71.2002L16.7332 71.3723L17.0475 71.4059L17.3449 71.4857L17.6172 71.6536L17.9315 71.6704L18.2205 71.7838L18.4929 71.83L18.5599 72.1113V72.4051V72.699L18.4426 72.9887L18.5222 73.2826L18.4845 73.5765L18.4719 73.8704V74.1643L18.4342 74.4539L18.4049 74.7478L18.4761 75.0459L18.4049 75.3398L18.3839 75.6337L18.4007 75.9402L18.43 76.2425L18.5138 76.5363L18.5641 76.8386L18.6898 77.1199L18.7945 77.4096L19.0124 77.6405L19.1297 77.9218L19.3392 78.1443L19.4858 78.4214L19.7079 78.6355L19.9676 78.8035L20.219 78.9798L20.5164 79.0638L20.793 79.1855L21.0862 79.2611L21.3711 79.3535L21.6518 79.492L21.9577 79.4836L22.2509 79.5466L22.5568 79.5256L22.85 79.6347L23.1559 79.5886L23.4575 79.597L23.7508 79.6935L24.0567 79.6347L24.3499 79.7355H24.6516L24.9532 79.7523L25.2549 79.7775L25.5523 79.8111H25.854L26.1598 79.7439L26.4615 79.7817L26.7631 79.8111H27.0648L27.3622 79.8405L27.6639 79.8573L27.9655 79.8195L28.2672 79.8279L28.5647 79.9118L28.8663 79.8699L29.168 79.9202L29.4696 79.9034H29.7713L30.0729 79.9244L30.3746 79.9496L30.6804 79.9034L30.9862 79.8741L31.2879 79.895L31.5895 79.9412L31.8912 79.958L32.197 79.9118L32.5029 79.8783L32.8045 79.9496L33.1104 79.9034L33.412 79.9916L33.7137 80L34.0153 79.9538H34.317L34.6186 79.979L34.9203 79.9244L35.2219 79.9076L35.5236 79.9244L35.8252 79.9916L36.1269 79.9076L36.4285 79.9244H36.7344H37.0402L37.3419 79.9328L37.6435 79.9202L37.9452 79.9076L38.2468 79.8866L38.5485 79.9832L38.8501 79.9034L39.1518 79.9706L39.4492 79.9328L39.7341 79.8908L40.019 79.8699L40.2997 79.8321L40.5888 79.8069L40.8653 79.7229L41.1125 79.5466L41.3848 79.4332L41.6823 79.3828L41.9462 79.2485L42.2395 79.1729L42.4783 78.9798L42.759 78.8748L43.0146 78.7237L43.2408 78.5264L43.488 78.3626L43.7394 78.1989L43.907 77.9428L44.15 77.7665L44.3427 77.5398L44.5396 77.313L44.7072 77.0611L44.8119 76.7757L44.8747 76.4776L45.0465 76.2173L45.0968 75.9192L45.2015 75.6379L45.189 75.3272L45.344 75.0585L45.4026 74.7646L45.3859 74.4539L45.52 74.1769L45.5325 73.8746L45.6331 73.5891L45.675 73.2952V72.9929L45.7755 72.7074L45.8216 72.4135L45.8007 72.1071L45.918 71.8216L45.9305 71.5193L46.0018 71.2254L46.0981 70.9357V70.6292L46.1442 70.3311L46.1987 70.0331L46.2364 69.7308L46.2657 69.4327L46.3495 69.143L46.4333 68.8533L46.4584 68.551L46.4794 68.2488L46.5506 67.9549L46.6176 67.661L46.7224 67.3755L46.7391 67.069L46.8355 66.7835L46.9612 66.5064L46.9779 66.1957L47.0952 65.9187L47.1916 65.6332L47.3299 65.3645L47.531 65.1378L47.6692 64.8775L47.8284 64.6172L48.0798 64.4366L48.2432 64.1763L48.4569 63.9622L48.6119 63.6977L48.8591 63.513L49.0141 63.2527L49.2403 63.0512L49.4121 62.8035L49.6132 62.581L49.764 62.3165L49.9777 62.1023L50.1536 61.8588L50.3506 61.6321L50.6061 61.4558L50.7779 61.2081L50.9622 60.9688L51.1885 60.7673L51.3602 60.5195L51.5865 60.318L51.7499 60.0661L51.9552 59.8436L52.1605 59.6253L52.2778 59.3314L52.4789 59.1047L52.6842 58.8822L52.9188 58.6849L53.0403 58.3952L53.233 58.1643L53.4215 57.9292L53.6143 57.6982L53.8279 57.4799L54.029 57.2532L54.2134 57.0139L54.3684 56.7536L54.5904 56.5479L54.7706 56.3044L54.934 56.0525L55.1393 55.8342L55.3697 55.6326L55.4744 55.3304L55.7174 55.1372L55.8431 54.8559L56.1071 54.6796L56.2411 54.4025L56.4339 54.1716L56.6475 53.9533L56.8067 53.693L57.0246 53.4789L57.188 53.2228L57.3137 52.9415L57.5567 52.7484L57.7536 52.5174L57.917 52.2614L58.0971 52.0178L58.2563 51.7617L58.403 51.493L58.646 51.2957L58.8093 51.0396L58.9602 50.7751L59.1194 50.5148L59.3037 50.2755L59.4797 50.0278L59.6892 49.8053L59.8065 49.5156L59.9782 49.2679L60.171 49.0328L60.4056 48.8271L60.5438 48.5542L60.7449 48.3233L60.8748 48.0462L61.0759 47.8153L61.2226 47.5508L61.3357 47.2611L61.5242 47.0218L61.7002 46.7741L61.8971 46.539L62.0102 46.2493L62.2155 46.0184L62.3496 45.7413L62.492 45.4726L62.7141 45.2543L62.8774 44.9982L63.045 44.7463L63.133 44.444L63.3425 44.2131L63.4263 43.9108L63.6693 43.7009L63.7908 43.4196L63.95 43.1593L64.0799 42.8864L64.2516 42.6345L64.3312 42.3322L64.4988 42.0761L64.5952 41.7864L64.8298 41.5639L64.8717 41.2448L65.056 40.9971L65.1901 40.7242L65.2865 40.4345L65.4373 40.17L65.6007 39.9139L65.6426 39.6033L65.806 39.343L65.8688 39.0407L66.0783 38.7972L66.0992 38.4781L66.2542 38.2094L66.2962 37.9029L66.4344 37.63L66.5643 37.3529L66.6146 37.0506L66.6523 36.7484L66.757 36.4629L66.8031 36.1648L66.8911 35.8751L66.8701 35.5686L66.8995 35.2705L66.912 34.9682L66.933 34.6702L67 34.3637L66.912 34.0698L66.8366 33.7801V33.4694L66.69 33.2007L66.6104 32.9068L66.4093 32.6759L66.2542 32.424L66.2204 32.2393L66.1202 32.1763ZM28.263 53.2186L27.9781 53.3067L27.689 53.2186L27.3916 53.2606L27.1067 53.1892L26.8176 53.1346L26.5495 53.0003L26.2771 52.8953L26.009 52.7777L25.7576 52.6224L25.4853 52.5174L25.2046 52.4209L24.9532 52.2823L24.7186 52.0934L24.463 51.9423L24.174 51.8667L23.8974 51.7575L23.6209 51.6526L23.3779 51.4679L23.1014 51.3587L22.8333 51.2327L22.5568 51.1236L22.2551 51.0774L21.9828 50.964L21.7105 50.8381L21.4172 50.7751H21.1072L20.8223 50.687L20.529 50.6366L20.2441 50.5442H19.9425L19.666 50.4435L19.3811 50.4225L19.092 50.4141L18.8113 50.3595L18.5264 50.3301L18.2457 50.2797L17.9566 50.2587L17.6675 50.2251L17.4329 50.032L17.2025 49.8473L16.9972 49.629L16.7416 49.4778L16.5154 49.2847L16.2682 49.1168L16.042 48.9236L15.8032 48.7515L15.5811 48.55L15.313 48.4156L15.0742 48.2351L14.8144 48.0882L14.5588 47.9412L14.3158 47.7691L14.0477 47.6389L13.8257 47.429L13.5408 47.3241L13.281 47.1813L13.0296 47.0176L12.7615 46.8832L12.4976 46.7447L12.2588 46.5558L11.9529 46.5096L11.7099 46.3123L11.425 46.2157L11.1234 46.1779L10.8301 46.1359L10.5494 46.1233L10.7756 45.9344L10.9977 45.7287L11.2742 45.6069L11.5298 45.4516L11.7392 45.2291L11.999 45.0779L12.2671 44.9394L12.5227 44.7799L12.7741 44.6161L13.0338 44.4608L13.2684 44.2676L13.5282 44.1207L13.7712 43.9444L14.0016 43.7512L14.2572 43.5959L14.4541 43.3566L14.7474 43.2516L14.9694 43.0459L15.2292 42.8948L15.4722 42.7226L15.7403 42.5841L15.9665 42.3868L16.1886 42.1811L16.4358 42.0089L16.7207 41.8914L16.9469 41.6856L17.1941 41.5135L17.4287 41.3246L17.701 41.1902L17.9482 41.0223L18.1954 40.8544L18.4133 40.6403L18.6688 40.4807L18.9286 40.3296L19.1883 40.1742L19.4481 40.0231L19.6869 39.8384L19.9048 39.6242L20.1519 39.4479L20.4159 39.301L20.6421 39.1036L20.9145 38.9693L21.1616 38.8014L21.434 38.667L21.6686 38.4781L21.9074 38.2934L22.142 38.1086L22.3892 37.9407L22.6531 37.7938L22.9129 37.6426L23.1475 37.4495L23.3654 37.2354L23.6084 37.0548L23.8933 36.9373L24.1321 36.7526L24.4002 36.6098L24.6223 36.3999L24.8485 36.1984L25.1041 36.0346L25.3889 35.9129L25.6026 35.6946L25.8917 35.5812L26.1305 35.3923L26.3484 35.174L26.5914 34.9934L26.8763 34.8675L27.1234 34.6744L27.0941 35.0102L27.1276 35.3293L27.1151 35.6484L27.1067 35.9675L27.0313 36.2823L27.0857 36.614L27.0019 36.9247L26.8469 37.1892L26.671 37.4327L26.4866 37.6678L26.252 37.8609L26.0718 38.1086L25.8372 38.3018L25.6361 38.5285L25.4267 38.7552L25.1753 38.9315L24.9239 39.1036L24.6893 39.2968L24.3876 39.3933L24.1656 39.6116L23.8597 39.6746L23.6084 39.8845L23.3319 40.0609L23.1894 40.359L23.1349 40.6906L23.2941 40.9803L23.4827 41.2406L23.7215 41.417L23.931 41.6143L24.1069 41.862L24.3876 41.9711L24.6306 42.1265L24.8778 42.2902L25.1585 42.3616L24.9742 42.6009L24.7437 42.8108L24.6223 43.1089L24.417 43.3356L24.1865 43.5413L24.0231 43.8016L23.8262 44.0367L23.6335 44.276L23.4282 44.507L23.1894 44.7085L23.0218 44.9436L22.9087 45.2081L22.8333 45.4852L22.7956 45.7665L22.804 46.0478L22.7914 46.3332L22.9213 46.5851L23.0512 46.8748L23.2062 47.1561L23.4198 47.3618L23.6628 47.5382L23.9016 47.7145L24.1195 47.9244L24.3918 48.0546L24.639 48.2225L24.8862 48.3905L25.1669 48.5038L25.3973 48.7053L25.6822 48.8061L25.942 48.9614L26.2311 49.0538L26.4866 49.2133L26.738 49.3855L27.048 49.419L27.3287 49.524L27.6094 49.629L27.8901 49.7297L28.1499 49.9019L28.4348 49.9984H28.749L29.0129 50.1706H29.323L29.6163 50.2419L29.9053 50.3301L30.207 50.3553L30.5086 50.3889L30.8773 50.4686L30.7768 50.7373L30.6217 50.9934L30.4081 51.216L30.3075 51.5098L30.0981 51.7324L29.9179 51.9759L29.721 52.2068L29.4989 52.4125L29.2685 52.6056L29.0674 52.8323L28.8118 52.9961L28.527 53.0884L28.2588 53.2102L28.263 53.2186ZM32.6328 29.4852L32.3437 29.4348L32.0714 29.2753L31.7571 29.2878L31.4597 29.2291H31.158L30.8564 29.1787L30.5505 29.1955L30.2573 29.2333L30.295 28.9352L30.2656 28.6371L30.2154 28.3348L30.207 28.0325L30.2614 27.7303L30.2824 27.428L30.2237 27.1257L30.207 26.8234L30.1902 26.5211L30.2656 26.2188V25.9166L30.2824 25.6143V25.312L30.2321 25.0097L30.2573 24.7074L30.295 24.4051L30.2782 24.1029L30.2028 23.8006L30.2237 23.4983L30.2154 23.196L30.2614 22.8937L30.2279 22.5914L30.2866 22.2892L30.2656 21.9869L30.2321 21.6846L30.2447 21.3823L30.2363 21.0842L30.2489 20.7861L30.2321 20.4839L30.2237 20.1816L30.2321 19.8793V19.577L30.2824 19.2747L30.2489 18.9725L30.2656 18.6702L30.2531 18.3679L30.274 18.0656V17.7633L30.3075 17.461L30.2614 17.1587L30.274 16.8565L30.2531 16.5542L30.2321 16.2519L30.2447 15.9454L30.2196 15.6138L30.5463 15.6641L30.8438 15.6054L31.1413 15.597L31.4387 15.6179L31.7404 15.6095H32.042L32.3437 15.6809L32.6746 15.6138L32.5909 15.9412V16.2393L32.6369 16.5374L32.6495 16.8355L32.6244 17.1336L32.6495 17.4358L32.6914 17.7381L32.6328 18.0362L32.6202 18.3343L32.6872 18.6324L32.6663 18.9305L32.6328 19.2285L32.6202 19.5266V19.8247L32.5951 20.1228L32.6202 20.4251L32.5951 20.7274V21.0296L32.6286 21.3277L32.6118 21.6258L32.6956 21.9239L32.616 22.222L32.6621 22.5243L32.6369 22.8266V23.1288L32.6034 23.4311L32.6411 23.7334L32.683 24.0315V24.3296L32.6202 24.6277L32.6621 24.9299V25.2322L32.6872 25.5345L32.6411 25.8326V26.1349L32.6369 26.4372L32.6914 26.7394L32.6788 27.0417L32.6579 27.344L32.6369 27.6463L32.616 27.9486L32.6369 28.2509L32.6914 28.5531V28.8554L32.6663 29.1577L32.6453 29.4558L32.6328 29.4852ZM36.8056 30.2745L36.5752 30.4466L36.2819 30.5096L36.0598 30.7153L35.8001 30.8454L35.5613 31.005L35.2931 31.1099L35.0879 30.921L34.8784 30.7405L34.6815 30.539L34.4427 30.413L34.3924 30.1191L34.384 29.821L34.4385 29.523L34.4594 29.2249L34.4008 28.9268L34.384 28.6287L34.3672 28.3306L34.4427 28.0283V27.7261L34.4594 27.4238V27.1215L34.4091 26.8192L34.4343 26.5211L34.472 26.223L34.4552 25.925L34.3798 25.6269L34.4008 25.3288L34.3924 25.0265L34.4385 24.7242L34.405 24.4219L34.4636 24.1197L34.4427 23.8174L34.4091 23.5151L34.4217 23.2128L34.4133 22.9105L34.4259 22.6082L34.4091 22.306L34.4008 22.0037L34.4091 21.7014V21.3991L34.4594 21.101L34.4259 20.8029L34.4427 20.5049L34.4301 20.2026L34.451 19.9003V19.598L34.4846 19.2957L34.4385 18.9934L34.451 18.6912L34.4301 18.3889L34.4091 18.0866L34.4217 17.7843L34.3882 17.482L34.4469 17.1797L34.3882 16.8775L34.3798 16.5752L34.4008 16.2729L34.3924 15.9664L34.405 15.6431L34.7234 15.7019L35.0208 15.6221L35.3183 15.7187H35.6157L35.9174 15.6725L36.2191 15.6599L36.5207 15.6851L36.8265 15.6599L36.8726 15.9664L36.814 16.2687L36.8014 16.571L36.8684 16.8733L36.8475 17.1755L36.814 17.4778L36.8014 17.7801V18.0824L36.7763 18.3847L36.8014 18.687L36.7763 18.9892V19.2915L36.8098 19.5938L36.793 19.8961L36.8768 20.1984L36.7972 20.5007L36.8433 20.8029L36.8182 21.1052V21.4117L36.7846 21.714L36.8224 22.0163L36.8642 22.3186V22.6208L36.8014 22.9231L36.8433 23.2296V23.5361L36.8684 23.8426L36.8224 24.1448V24.4513L36.8182 24.7536L36.8726 25.0559L36.8601 25.3582L36.8391 25.6647L36.8182 25.9711L36.7972 26.2734L36.8182 26.5757L36.8726 26.8822V27.1887L36.8475 27.4951L36.881 27.8016L36.8391 28.1081V28.4146L36.7972 28.7211L36.8182 29.0276L36.8349 29.334L36.8559 29.6405V29.947L36.8265 30.2493L36.8056 30.2745ZM38.6071 29.6237L38.5527 29.3256L38.6364 29.0233L38.5568 28.7211L38.5694 28.4188L38.5485 28.1165L38.5946 27.8142V27.5119L38.6029 27.2097L38.6406 26.9074L38.6113 26.6051L38.561 26.3028L38.5527 26.0005L38.6071 25.6982L38.6281 25.396L38.5694 25.0937L38.5527 24.7914L38.5359 24.4891L38.6113 24.1868V23.8845L38.6281 23.5823V23.28L38.5778 22.9777L38.6029 22.6754L38.6406 22.3731L38.6239 22.0708L38.5485 21.7686L38.5694 21.4663L38.561 21.164L38.6071 20.8617L38.5736 20.5594L38.6323 20.2572L38.6113 19.9507L38.5778 19.6484L38.5904 19.3461L38.582 19.0438L38.5946 18.7373L38.5778 18.4351L38.5694 18.1328L38.5778 17.8263V17.5198L38.6281 17.2133L38.5946 16.911L38.6113 16.6046L38.5987 16.2981L38.6197 15.9916L38.6113 15.6977L38.8962 15.7397L39.1937 15.6935L39.4911 15.7061L39.7886 15.6851L40.0902 15.6641L40.3919 15.6767L40.6935 15.6431L40.9784 15.6977L41.0329 15.9832L41.0413 16.2855L41.0203 16.5878L41.0287 16.8901V17.1923L40.9575 17.4946L41.0371 17.7969L40.9407 18.0992V18.4015L40.9868 18.7038L40.9994 19.006L40.9742 19.3083L40.9994 19.6106L41.0413 19.9129L40.9826 20.2152L40.9701 20.5174L41.0371 20.8197L41.0161 21.122L40.9826 21.4243L40.9701 21.7266V22.0289L40.9449 22.3311L40.9701 22.6334L40.9449 22.9357V23.238L40.9784 23.5403L40.9617 23.8426L41.0455 24.1448L40.9659 24.4471L41.0119 24.7494L40.9868 25.0517V25.354L40.9533 25.6563L40.991 25.9585L41.0329 26.2608V26.5631L40.9701 26.8654L41.0119 27.1677V27.47L41.0371 27.7722L40.991 28.0745V28.3768L40.9868 28.6833L41.0413 28.9898L41.0287 29.2962L41.0078 29.6027L40.7061 29.5691L40.4086 29.5356L40.107 29.5481L39.8053 29.6027L39.5079 29.6111L39.2062 29.5943L38.913 29.6531L38.6239 29.6405L38.6071 29.6237ZM49.2319 47.0848L49.2864 46.7993L49.454 46.5348V46.2241L49.5126 45.9302V45.6321L49.5587 45.334L49.5252 45.0317L49.4624 44.7379L49.387 44.4398L49.2152 44.1879L48.9973 43.9738L48.7878 43.7638L48.5951 43.5287L48.3563 43.3398L48.0672 43.2432L47.7907 43.1299L47.5058 43.0375L47.2419 42.8738L46.9486 42.7982L46.6595 42.71L46.3621 42.6513L46.0562 42.6639L45.7588 42.6093L45.4613 42.5463H45.1597L44.858 42.6219L44.5438 42.5967L44.636 42.286L44.7784 42.0131L44.8412 41.715L44.9837 41.4421L45.0507 41.1441L45.0968 40.8418L45.1806 40.5521L45.2393 40.254L45.3105 39.9601L45.344 39.6578L45.3775 39.3555L45.4152 39.0533L45.4362 38.751L45.4906 38.4487L45.4487 38.1464L45.4403 37.8441L45.3817 37.546L45.3356 37.2438L45.2434 36.9499L45.1597 36.6518L44.9753 36.3999L44.8161 36.1396L44.6024 35.9213L44.3678 35.7324L44.1332 35.5434L43.8567 35.4217L43.6053 35.2411L43.2995 35.1992L43.0062 35.132L42.7129 35.0564L42.4155 35.0312L42.118 35.0102H41.8457L42.0803 34.8381L42.3861 34.8171L42.6543 34.6954L42.8973 34.5232L43.1486 34.3679L43.4084 34.2293L43.6263 34.032L43.8106 33.8053L44.0368 33.6206L44.1751 33.3729L44.4348 33.2301L44.7365 33.2007L45.0382 33.2175L45.3356 33.2385L45.6331 33.2679L45.9263 33.3309L46.2238 33.3645L46.5087 33.4568L46.7978 33.5282L47.091 33.5912L47.3676 33.7045L47.6776 33.7297L47.9248 33.9145L48.2181 33.9858L48.482 34.1286L48.7585 34.2503L49.0141 34.4141L49.299 34.5148L49.588 34.6114L49.852 34.7499L50.0866 34.9515L50.3673 35.0606L50.6271 35.2076L50.8994 35.3377L51.1382 35.5308L51.3938 35.6904L51.6493 35.8499L51.9342 35.9633L52.1814 36.1354L52.4244 36.3159L52.6674 36.4965L52.9062 36.6812L53.166 36.8323L53.4467 36.9583L53.698 37.1262L53.9285 37.3235L54.1924 37.4663L54.4145 37.6762L54.6575 37.8525L54.8753 38.0625L55.1309 38.222L55.3823 38.3857L55.6336 38.5495L55.8724 38.73L56.0945 38.9357L56.3165 39.1372L56.5595 39.2968L56.459 39.5781L56.2914 39.83L56.0568 40.0231L55.8808 40.2624L55.663 40.4681L55.4996 40.7242L55.3278 40.9719L55.1183 41.186L54.8711 41.3624L54.7119 41.6227L54.4605 41.7906L54.272 42.0215L54.1086 42.2734L53.9117 42.4959L53.6645 42.6723L53.4718 42.899L53.2246 43.0753L53.0403 43.3146L52.8266 43.5287L52.6213 43.7512L52.3741 43.9276L52.2317 44.2047L52.0054 44.402L51.7708 44.5909L51.553 44.7966L51.3477 45.015L51.1047 45.1955L50.9287 45.439L50.7025 45.6363L50.514 45.8714L50.3296 46.1107L50.1034 46.3081L49.8813 46.5054L49.6844 46.7321L49.4121 46.879L49.2403 47.1016L49.2319 47.0848Z" fill="#321600"/>
</svg>
